<svg id="Layer_1" data-name="Layer 1" xmlns="http://www.w3.org/2000/svg" viewBox="0 0 390.48 179.54"><defs><style>.cls-1{fill:#181818;}</style></defs><path class="cls-1" d="M42.13,31.9H27.5a.32.32,0,0,0-.17.07.23.23,0,0,0-.1.2L25.42,46.73a.24.24,0,0,0,.27.27h8.92c.45,0,.63.23.54.67l-.54,4.23a.61.61,0,0,1-.2.47.65.65,0,0,1-.47.2H25c-.14,0-.25.09-.34.27l-2.41,19.8a.72.72,0,0,1-.74.67h-5a.54.54,0,0,1-.43-.2.47.47,0,0,1-.1-.47L21.6,27a1,1,0,0,1,.26-.47.67.67,0,0,1,.47-.2H42.8c.45,0,.63.23.54.67l-.47,4.23A.71.71,0,0,1,42.13,31.9Z"/><path class="cls-1" d="M73.74,73.17a.69.69,0,0,1-.27-.4l-3.56-20c0-.13-.11-.2-.2-.2H65.15c-.13,0-.25.09-.34.27L62.4,72.64a.72.72,0,0,1-.74.67h-5a.54.54,0,0,1-.43-.2.5.5,0,0,1-.1-.47L61.73,27a.94.94,0,0,1,.27-.47.65.65,0,0,1,.47-.2H74.14a8.92,8.92,0,0,1,7,3,11.65,11.65,0,0,1,2.62,8,16.61,16.61,0,0,1-.14,2.42,16.44,16.44,0,0,1-2.55,7.38A11.8,11.8,0,0,1,76,51.56c-.18.14-.24.27-.2.41l4.1,20.6v.13a.54.54,0,0,1-.61.61h-5.1A.72.72,0,0,1,73.74,73.17ZM67.46,32a.23.23,0,0,0-.1.2l-1.81,15a.13.13,0,0,0,0,.17.22.22,0,0,0,.2.1h4.84a6,6,0,0,0,5-2.62,10.69,10.69,0,0,0,2-6.71,7,7,0,0,0-1.37-4.56,4.57,4.57,0,0,0-3.73-1.68H67.63A.32.32,0,0,0,67.46,32Z"/><path class="cls-1" d="M102.26,71.09a10,10,0,0,1-2.82-7.51c0-.45,0-1.12.13-2l2.82-23.42a14,14,0,0,1,4.37-9,12.87,12.87,0,0,1,9-3.39,10.51,10.51,0,0,1,7.76,2.86,10.29,10.29,0,0,1,2.85,7.61c0,.36,0,1-.14,1.88L123.4,61.56a13.75,13.75,0,0,1-4.4,8.93,13.06,13.06,0,0,1-9.09,3.35A10.46,10.46,0,0,1,102.26,71.09Zm12.68-4.59a7.51,7.51,0,0,0,2.15-4.67l3-24a6.26,6.26,0,0,0,.07-1.08,5.59,5.59,0,0,0-1.34-3.89,4.76,4.76,0,0,0-3.69-1.47,5.81,5.81,0,0,0-4.26,1.77,7.64,7.64,0,0,0-2.12,4.67l-3,24a6.73,6.73,0,0,0-.07,1.14A5.54,5.54,0,0,0,107,66.83a4.61,4.61,0,0,0,3.59,1.44A6,6,0,0,0,114.94,66.5Z"/><path class="cls-1" d="M169.3,26.33h5c.44,0,.62.23.53.67l-5.57,45.64a.71.71,0,0,1-.74.67h-5c-.45,0-.63-.23-.54-.67l4-33.29c0-.13,0-.2,0-.2a.36.36,0,0,0-.23.13L159,51.3a.78.78,0,0,1-.67.47c-.22,0-.4-.16-.54-.47l-4.69-11.95a.36.36,0,0,0-.24-.13c-.07,0-.1.06-.1.2L148.7,72.64a.72.72,0,0,1-.74.67h-5a.54.54,0,0,1-.43-.2.47.47,0,0,1-.1-.47L148.09,27a.67.67,0,0,1,.2-.47.69.69,0,0,1,.47-.2h5a.75.75,0,0,1,.74.47l5.3,12.62s0,.07.13.07a.68.68,0,0,0,.27-.07l8.26-12.62A1,1,0,0,1,169.3,26.33Z"/><path class="cls-1" d="M245.1,26.53a.53.53,0,0,1,.1.47l-.54,4.23a.61.61,0,0,1-.2.47.73.73,0,0,1-.54.2H235.4a.24.24,0,0,0-.27.27l-5,40.47a.72.72,0,0,1-.74.67h-5c-.44,0-.62-.23-.53-.67l5-40.47a.24.24,0,0,0-.27-.27h-8.05c-.45,0-.63-.22-.54-.67L220.5,27a1.11,1.11,0,0,1,.27-.47.67.67,0,0,1,.47-.2h23.42A.56.56,0,0,1,245.1,26.53Z"/><path class="cls-1" d="M282,26.33h4.9a.65.65,0,0,1,.51.2.53.53,0,0,1,.1.47l-5.64,45.64a.68.68,0,0,1-.67.67h-5c-.4,0-.6-.23-.6-.67l2.48-19.8a.24.24,0,0,0-.27-.27H268c-.14,0-.25.09-.34.27l-2.42,19.8a.71.71,0,0,1-.74.67h-5a.56.56,0,0,1-.44-.2.53.53,0,0,1-.1-.47L264.59,27a1.11,1.11,0,0,1,.27-.47.65.65,0,0,1,.47-.2h5c.4,0,.6.23.6.67l-2.48,19.73a.24.24,0,0,0,.27.27h9.79c.14,0,.25-.09.34-.27L281.23,27A.72.72,0,0,1,282,26.33Z"/><path class="cls-1" d="M329.15,31.9h-14.7a.27.27,0,0,0-.16.07.21.21,0,0,0-.1.2l-1.82,14.56a.24.24,0,0,0,.27.27h9c.45,0,.63.23.54.67l-.54,4.23a.61.61,0,0,1-.2.47.65.65,0,0,1-.47.2h-9a.38.38,0,0,0-.33.27l-1.75,14.63s0,.1,0,.17a.23.23,0,0,0,.2.1h14.63c.4,0,.61.22.61.67l-.54,4.23a.72.72,0,0,1-.74.67H303.52a.56.56,0,0,1-.44-.2.5.5,0,0,1-.1-.47L308.55,27a.94.94,0,0,1,.27-.47.65.65,0,0,1,.47-.2h20.53c.45,0,.63.23.54.67l-.47,4.23A.71.71,0,0,1,329.15,31.9Z"/><path class="cls-1" d="M19.08,151.72a9.46,9.46,0,0,1-2.79-7.21,18.41,18.41,0,0,1,.14-1.88l3-24.56a13.26,13.26,0,0,1,4.26-8.52,12.81,12.81,0,0,1,8.89-3.22A10.66,10.66,0,0,1,40.22,109a9.57,9.57,0,0,1,2.85,7.31,17.62,17.62,0,0,1-.13,1.82L42.53,121a.61.61,0,0,1-.2.46.62.62,0,0,1-.47.21h-5c-.41,0-.61-.23-.61-.67l.41-3a6.72,6.72,0,0,0,.06-1.07,5.07,5.07,0,0,0-1.31-3.66,4.6,4.6,0,0,0-3.52-1.37,5.91,5.91,0,0,0-4.23,1.67A7.19,7.19,0,0,0,25.62,118l-3,24.7a7.64,7.64,0,0,0-.06,1.07,5.12,5.12,0,0,0,1.27,3.69,4.66,4.66,0,0,0,3.56,1.34,5.89,5.89,0,0,0,4.23-1.67,7.19,7.19,0,0,0,2.08-4.43l.87-7.38c0-.18-.07-.27-.2-.27h-5c-.45,0-.63-.23-.54-.67l.47-4.16a.72.72,0,0,1,.74-.68H40.86c.4,0,.6.23.6.68l-1.54,12.41a13.14,13.14,0,0,1-4.3,8.52,12.93,12.93,0,0,1-8.92,3.23A10.6,10.6,0,0,1,19.08,151.72Z"/><path class="cls-1" d="M76.76,153.7a.61.61,0,0,1-.27-.4l-3.56-20c0-.13-.11-.2-.2-.2H68.17c-.14,0-.25.09-.34.27l-2.41,19.8a.72.72,0,0,1-.74.67h-5a.54.54,0,0,1-.43-.2.47.47,0,0,1-.1-.47l5.57-45.64a.94.94,0,0,1,.27-.47.65.65,0,0,1,.46-.2H77.16a8.92,8.92,0,0,1,7,3,11.65,11.65,0,0,1,2.61,8,16.87,16.87,0,0,1-.13,2.42,16.4,16.4,0,0,1-2.55,7.38A11.8,11.8,0,0,1,79,132.09c-.18.14-.24.27-.2.41l4.1,20.6v.13a.54.54,0,0,1-.61.61h-5.1A.72.72,0,0,1,76.76,153.7Zm-6.28-41.2a.23.23,0,0,0-.1.2l-1.81,15a.13.13,0,0,0,0,.17.22.22,0,0,0,.2.1h4.84a6,6,0,0,0,5-2.62,10.69,10.69,0,0,0,2-6.71,7,7,0,0,0-1.37-4.56,4.57,4.57,0,0,0-3.73-1.68H70.65A.43.43,0,0,0,70.48,112.5Z"/><path class="cls-1" d="M105.28,151.62a10,10,0,0,1-2.82-7.51c0-.45,0-1.12.13-2l2.82-23.42a14,14,0,0,1,4.36-9,12.93,12.93,0,0,1,9.06-3.38,10.51,10.51,0,0,1,7.76,2.85,10.29,10.29,0,0,1,2.85,7.61c0,.36-.05,1-.14,1.88l-2.88,23.42A13.75,13.75,0,0,1,122,151a13.07,13.07,0,0,1-9.09,3.36A10.47,10.47,0,0,1,105.28,151.62ZM118,147a7.51,7.51,0,0,0,2.15-4.67l3-24a6.26,6.26,0,0,0,.07-1.08,5.59,5.59,0,0,0-1.34-3.89,4.76,4.76,0,0,0-3.69-1.47,5.81,5.81,0,0,0-4.26,1.77,7.59,7.59,0,0,0-2.12,4.67l-3,24a6.73,6.73,0,0,0-.07,1.14,5.54,5.54,0,0,0,1.31,3.86,4.61,4.61,0,0,0,3.59,1.44A6,6,0,0,0,118,147Z"/><path class="cls-1" d="M149.37,151.35a11.45,11.45,0,0,1-2.75-8c0-.49,0-1.23.13-2.21l4.16-33.56a.67.67,0,0,1,.2-.47.77.77,0,0,1,.54-.2h4.9c.4,0,.6.23.6.67l-4.22,34.23a9.18,9.18,0,0,0-.07,1.34,6.32,6.32,0,0,0,1.27,4.16,4.29,4.29,0,0,0,3.49,1.54,5.58,5.58,0,0,0,4.27-1.94,9.1,9.1,0,0,0,2.18-5.1l4.22-34.23a.67.67,0,0,1,.2-.47.77.77,0,0,1,.54-.2h4.9c.4,0,.6.23.6.67l-4.16,33.56a15.41,15.41,0,0,1-4.39,9.63,12.49,12.49,0,0,1-9.09,3.66A9.64,9.64,0,0,1,149.37,151.35Z"/><path class="cls-1" d="M214.06,106.86H219a.57.57,0,0,1,.44.2.53.53,0,0,1,.1.47l-5.57,45.64a.72.72,0,0,1-.74.67h-5.64a.54.54,0,0,1-.6-.54l-7.32-30.67a.16.16,0,0,0-.2-.1.16.16,0,0,0-.13.17l-3.69,30.47a.72.72,0,0,1-.74.67h-5a.54.54,0,0,1-.43-.2.47.47,0,0,1-.1-.47l5.57-45.64a1,1,0,0,1,.26-.47.67.67,0,0,1,.47-.2h5.57a.71.71,0,0,1,.68.54l7.31,30.67c0,.13.11.19.2.17a.22.22,0,0,0,.14-.24l3.75-30.47A.72.72,0,0,1,214.06,106.86Z"/><path class="cls-1" d="M235.5,153.64a.53.53,0,0,1-.1-.47L241,107.53a1.11,1.11,0,0,1,.27-.47.65.65,0,0,1,.47-.2h10.67a10.18,10.18,0,0,1,7.65,2.82,10.59,10.59,0,0,1,2.75,7.72c0,.45,0,1.16-.13,2.15L260,141.15a14.55,14.55,0,0,1-4.29,9.27,12.6,12.6,0,0,1-9,3.42H235.94A.56.56,0,0,1,235.5,153.64Zm6.81-5.47a.27.27,0,0,0,.21.1l4.76-.07a5.44,5.44,0,0,0,4.23-2,10,10,0,0,0,2.21-5.4l2.55-20.94a12.11,12.11,0,0,0,.07-1.54,6.88,6.88,0,0,0-1.21-4.36,4.16,4.16,0,0,0-3.49-1.55h-4.76a.38.38,0,0,0-.17.07.21.21,0,0,0-.1.2l-4.3,35.3S242.27,148.1,242.31,148.17Z"/><path class="cls-1" d="M309.55,151.35a11.49,11.49,0,0,1-2.75-8c0-.49.05-1.23.14-2.21l4.16-33.56a.67.67,0,0,1,.2-.47.73.73,0,0,1,.54-.2h4.89c.41,0,.61.23.61.67l-4.23,34.23a10.87,10.87,0,0,0-.07,1.34,6.32,6.32,0,0,0,1.28,4.16,4.27,4.27,0,0,0,3.49,1.54,5.57,5.57,0,0,0,4.26-1.94,9,9,0,0,0,2.18-5.1l4.23-34.23a.67.67,0,0,1,.2-.47.73.73,0,0,1,.54-.2h4.9c.4,0,.6.23.6.67l-4.16,33.56a15.42,15.42,0,0,1-4.4,9.63,12.47,12.47,0,0,1-9.09,3.66A9.66,9.66,0,0,1,309.55,151.35Z"/><path class="cls-1" d="M374.52,109.78a11.77,11.77,0,0,1,2.61,8,17.44,17.44,0,0,1-.13,2.48,15.93,15.93,0,0,1-4.13,9.53,11.11,11.11,0,0,1-8.35,3.63h-6.11a.24.24,0,0,0-.27.27l-2.41,19.46a.72.72,0,0,1-.74.67h-5a.54.54,0,0,1-.43-.2.5.5,0,0,1-.11-.47l5.64-45.7a.65.65,0,0,1,.2-.47.73.73,0,0,1,.54-.21h11.61A8.92,8.92,0,0,1,374.52,109.78Zm-6.11,16.38a10.53,10.53,0,0,0,2.35-5.74c.09-.81.13-1.37.13-1.68a7.26,7.26,0,0,0-1.37-4.66,4.54,4.54,0,0,0-3.73-1.71H361c-.14,0-.25.09-.34.26L358.81,128a.24.24,0,0,0,.27.27h4.77A5.87,5.87,0,0,0,368.41,126.16Z"/></svg>