<svg id="Layer_1" data-name="Layer 1" xmlns="http://www.w3.org/2000/svg" viewBox="0 0 764.5 149.43"><defs><style>.cls-1{fill:#ccff01;}.cls-2{fill:#e5e1dc;}</style></defs><path class="cls-1" d="M226.71,29H196.58A6.45,6.45,0,0,0,191,32.27l-42.35,73.79-2.37,4.1,12.38,11.6h11.11a6.47,6.47,0,0,0,5.6-3.24Z"/><path class="cls-1" d="M266.78,29H236.65a6.45,6.45,0,0,0-5.59,3.24l-43,74.88-1.39,2.79,12.09,11.82h11.1a6.47,6.47,0,0,0,5.6-3.24Z"/><path class="cls-1" d="M150.91,32.23,120.37,84.55l21.52,21.51,44.75-77H156.48A6.45,6.45,0,0,0,150.91,32.23Z"/><path class="cls-1" d="M73.39,92.14,90.54,121l25-41.44H85.17a6.46,6.46,0,0,0-5.38,2.89Z"/><path class="cls-1" d="M62,31.54,27.2,91.8l12.36,21.41h9.07L97.72,28.32H67.57A6.45,6.45,0,0,0,62,31.54Z"/><path class="cls-1" d="M39.56,113.21H57.3A6.43,6.43,0,0,0,62.89,110L73.39,91.8H27.2Z"/><polygon class="cls-1" points="77.25 28.32 144.21 28.32 132.11 49.28 53.02 49.28 77.25 28.32"/><path class="cls-2" d="M311.16,96.93a13,13,0,0,1-3.85-9.82V60.68a13,13,0,0,1,3.85-9.82,14.1,14.1,0,0,1,10.19-3.7,14.4,14.4,0,0,1,10.27,3.7,13,13,0,0,1,3.92,9.89v2.91a.88.88,0,0,1-.26.64.9.9,0,0,1-.64.26h-6.87a.86.86,0,0,1-.63-.26.84.84,0,0,1-.26-.64V60.6a6.11,6.11,0,0,0-1.53-4.33,5.24,5.24,0,0,0-4-1.64,5.12,5.12,0,0,0-4,1.64,6.22,6.22,0,0,0-1.49,4.33V87.18a6.19,6.19,0,0,0,1.49,4.33,5.1,5.1,0,0,0,4,1.65,5.21,5.21,0,0,0,4-1.65,6.08,6.08,0,0,0,1.53-4.33V80a.34.34,0,0,0-.38-.38H322a.89.89,0,0,1-.9-.89V73.3a.89.89,0,0,1,.9-.9h12.69a.89.89,0,0,1,.9.9V87.11a12.89,12.89,0,0,1-3.92,9.82,14.39,14.39,0,0,1-10.27,3.69Q315,100.62,311.16,96.93Z"/><path class="cls-2" d="M369.88,99.28l-6.34-21.43c-.11-.2-.23-.3-.38-.3h-4a.34.34,0,0,0-.38.38v21.2a.89.89,0,0,1-.89.89h-6.87a.89.89,0,0,1-.9-.89V48.66a.89.89,0,0,1,.9-.9h14A12.49,12.49,0,0,1,376.79,55a18,18,0,0,1,1.68,8,16.8,16.8,0,0,1-1.79,8,12.1,12.1,0,0,1-5,5.08c-.2,0-.27.2-.22.45L378.77,99a.82.82,0,0,1,.07.37c0,.45-.27.67-.82.67h-7.17A.93.93,0,0,1,369.88,99.28ZM358.83,55.6V70.46a.33.33,0,0,0,.38.37h4.55a5.33,5.33,0,0,0,4.37-2.09,8.79,8.79,0,0,0,1.68-5.67,9,9,0,0,0-1.68-5.72,5.33,5.33,0,0,0-4.37-2.12h-4.55A.33.33,0,0,0,358.83,55.6Z"/><path class="cls-2" d="M395.08,96.74a13.86,13.86,0,0,1-3.92-10.3V61.35a13.86,13.86,0,0,1,3.92-10.3,14,14,0,0,1,10.34-3.89,14.19,14.19,0,0,1,10.38,3.89,13.77,13.77,0,0,1,3.95,10.3V86.44a13.77,13.77,0,0,1-3.95,10.3,14.18,14.18,0,0,1-10.38,3.88A14,14,0,0,1,395.08,96.74Zm14.45-5.34a6.65,6.65,0,0,0,1.56-4.59V61a6.69,6.69,0,0,0-1.56-4.6,5.29,5.29,0,0,0-4.11-1.75,5.16,5.16,0,0,0-4.07,1.75,6.78,6.78,0,0,0-1.53,4.6V86.81a6.73,6.73,0,0,0,1.53,4.59,5.14,5.14,0,0,0,4.07,1.76A5.27,5.27,0,0,0,409.53,91.4Z"/><path class="cls-2" d="M437.94,96.48q-3.85-4.14-3.85-10.94V48.66a.89.89,0,0,1,.9-.9h6.87a.88.88,0,0,1,.63.26.9.9,0,0,1,.26.64V86.44a7.49,7.49,0,0,0,1.5,4.85,5.12,5.12,0,0,0,7.91,0,7.55,7.55,0,0,0,1.49-4.85V48.66a.89.89,0,0,1,.9-.9h6.87a.89.89,0,0,1,.89.9V85.54q0,6.79-3.88,10.94a14.75,14.75,0,0,1-20.49,0Z"/><path class="cls-2" d="M498.34,48a.86.86,0,0,1,.63-.26h6.8a.89.89,0,0,1,.89.9V99.13a.89.89,0,0,1-.89.89h-7.84a.93.93,0,0,1-1-.74L485.83,67.62c-.05-.15-.14-.21-.26-.19a.25.25,0,0,0-.19.27l.08,31.43a.89.89,0,0,1-.9.89h-6.79a.89.89,0,0,1-.9-.89V48.66a.89.89,0,0,1,.9-.9h7.69a.94.94,0,0,1,1,.75l11.2,31.43c.05.15.14.21.26.19a.24.24,0,0,0,.19-.26V48.66A.86.86,0,0,1,498.34,48Z"/><path class="cls-2" d="M522.45,99.76a.86.86,0,0,1-.26-.63V48.66a.89.89,0,0,1,.9-.9h12.77q6.42,0,10.26,3.88T550,62V85.76q0,6.51-3.85,10.38T535.86,100H523.09A.86.86,0,0,1,522.45,99.76Zm8.78-7.2,4.48-.08a4.83,4.83,0,0,0,4-2,8.81,8.81,0,0,0,1.61-5.27V62.54a8.55,8.55,0,0,0-1.53-5.33,5,5,0,0,0-4.15-2h-4.4a.33.33,0,0,0-.38.37V92.18A.34.34,0,0,0,531.23,92.56Z"/><path class="cls-2" d="M574.08,99.8l-9.93-50.47-.07-.3c0-.45.27-.67.82-.67h7.16c.6,0,.93.27,1,.82l5.22,31.13c0,.15.12.23.23.23s.17-.08.22-.23l4.7-31.13a.84.84,0,0,1,1-.82h6a.84.84,0,0,1,1,.82l5.07,31.13c.05.15.13.23.23.23s.17-.08.22-.23l4.71-31.13a.84.84,0,0,1,1-.82h6.94c.65,0,.92.32.82,1L600.81,99.8a.84.84,0,0,1-1,.82h-6.35a.84.84,0,0,1-1-.82l-5-31.73c0-.2-.13-.3-.22-.3s-.18.1-.23.3L582.44,99.8a.84.84,0,0,1-1,.82h-6.42A.84.84,0,0,1,574.08,99.8Z"/><path class="cls-2" d="M625.49,97.34A13.85,13.85,0,0,1,621.57,87V62a13.85,13.85,0,0,1,3.92-10.31,15.76,15.76,0,0,1,20.71,0,13.8,13.8,0,0,1,4,10.31V87a13.8,13.8,0,0,1-4,10.31,15.76,15.76,0,0,1-20.71,0ZM639.93,92a6.61,6.61,0,0,0,1.57-4.59V61.57A6.61,6.61,0,0,0,639.93,57a5.22,5.22,0,0,0-4.1-1.75A5.12,5.12,0,0,0,631.76,57a6.73,6.73,0,0,0-1.53,4.59V87.41A6.73,6.73,0,0,0,631.76,92a5.12,5.12,0,0,0,4.07,1.75A5.22,5.22,0,0,0,639.93,92Z"/><path class="cls-2" d="M684.51,99.87l-6.35-21.42c-.1-.2-.22-.3-.37-.3h-4a.32.32,0,0,0-.37.37V99.73a.89.89,0,0,1-.9.89h-6.87a.89.89,0,0,1-.89-.89V49.25a.89.89,0,0,1,.89-.89h14a12.42,12.42,0,0,1,11.68,7.28,18,18,0,0,1,1.68,8,16.68,16.68,0,0,1-1.79,8,11.94,11.94,0,0,1-5,5.07c-.2,0-.28.2-.23.45l7.32,22.48a.81.81,0,0,1,.08.37c0,.45-.28.67-.83.67h-7.16A.94.94,0,0,1,684.51,99.87Zm-11-43.67V71.05a.33.33,0,0,0,.37.38h4.55a5.34,5.34,0,0,0,4.37-2.09,8.83,8.83,0,0,0,1.68-5.68A9,9,0,0,0,682.75,58a5.3,5.3,0,0,0-4.37-2.13h-4.55A.33.33,0,0,0,673.46,56.2Z"/><path class="cls-2" d="M706.94,100.36a.89.89,0,0,1-.26-.63V49.25a.89.89,0,0,1,.9-.89h6.87a.89.89,0,0,1,.89.89V69.86c0,.2,0,.31.15.34s.2,0,.3-.19L727,49a1.2,1.2,0,0,1,1.12-.67h7.39c.35,0,.57.1.67.3a.8.8,0,0,1-.07.74l-11.2,21a2.13,2.13,0,0,0-.08.45l12.1,28.75a1,1,0,0,1,.07.44c0,.4-.25.6-.74.6h-7.4a1,1,0,0,1-1-.67L719,78.37c0-.15-.13-.21-.22-.19a.66.66,0,0,0-.3.19l-3,5a1.15,1.15,0,0,0-.15.45V99.73a.89.89,0,0,1-.89.89h-6.87A.9.9,0,0,1,706.94,100.36Z"/></svg>