<svg id="Layer_1" data-name="Layer 1" xmlns="http://www.w3.org/2000/svg" viewBox="0 0 764.5 149.43"><defs><style>.cls-1{fill:#0BF571;}.cls-2,.cls-4{font-size:74.66px;fill:#e5e1dc;font-family:BarlowCondensed-SemiBold, Barlow Condensed;font-weight:600;}.cls-2,.cls-5{letter-spacing:0.1em;}.cls-3{letter-spacing:0.09em;}.cls-4{letter-spacing:0.09em;}</style></defs><path class="cls-1" d="M226.71,29H196.58A6.45,6.45,0,0,0,191,32.27l-42.35,73.79-2.37,4.1,12.38,11.6h11.11a6.47,6.47,0,0,0,5.6-3.24Z"/><path class="cls-1" d="M266.78,29H236.65a6.45,6.45,0,0,0-5.59,3.24l-43,74.88-1.39,2.79,12.09,11.82h11.1a6.47,6.47,0,0,0,5.6-3.24Z"/><path class="cls-1" d="M150.91,32.23,120.37,84.55l21.52,21.51,44.75-77H156.48A6.45,6.45,0,0,0,150.91,32.23Z"/><path class="cls-1" d="M73.39,92.14,90.54,121l25-41.44H85.17a6.46,6.46,0,0,0-5.38,2.89Z"/><path class="cls-1" d="M62,31.54,27.2,91.8l12.36,21.41h9.07L97.72,28.32H67.57A6.45,6.45,0,0,0,62,31.54Z"/><path class="cls-1" d="M39.56,113.21H57.3A6.43,6.43,0,0,0,62.89,110L73.39,91.8H27.2Z"/><polygon class="cls-1" points="77.25 28.32 144.21 28.32 132.11 49.28 53.02 49.28 77.25 28.32"/><text class="cls-2" transform="translate(304.18 100.02)">GRO<tspan class="cls-3" x="126.18" y="0">U</tspan><tspan x="168.66" y="0">ND</tspan></text><text class="cls-4" transform="translate(562.36 100.62)">W<tspan class="cls-5" x="56.07" y="0">ORK</tspan></text></svg>