<svg id="Layer_1" data-name="Layer 1" xmlns="http://www.w3.org/2000/svg" viewBox="0 0 364.63 173.19"><defs><style>.cls-1{fill:#0BF571;}</style></defs><path class="cls-1" d="M294.67,20.76h-43a9.2,9.2,0,0,0-8,4.62L182.53,131.66l-3.38,5.85,17.67,16.54h15.84a9.19,9.19,0,0,0,8-4.62Z"/><path class="cls-1" d="M351.84,20.76h-43a9.23,9.23,0,0,0-8,4.61L238.72,133.21l-2,4L254,154.05h15.85a9.2,9.2,0,0,0,8-4.62Z"/><path class="cls-1" d="M186.54,25.32,142.21,101l30.69,30.69,64.61-110.9h-43A9.21,9.21,0,0,0,186.54,25.32Z"/><path class="cls-1" d="M75.2,111.31l30.47,30.56,29.62-48.44H92a9.22,9.22,0,0,0-7.67,4.12Z"/><path class="cls-1" d="M176.22,20.76,159,50.66H92.6L57.53,111.31H75.2l-15,26a9.2,9.2,0,0,1-8,4.59H26.93L9.29,111.31,58.92,25.36a9.21,9.21,0,0,1,8-4.6Z"/></svg>