<svg id="Layer_1" data-name="Layer 1" xmlns="http://www.w3.org/2000/svg" viewBox="0 0 378.27 252"><defs><style>.cls-1{fill:#0BF571;}.cls-2{font-size:58.33px;fill:#e5e1dc;font-family:BarlowCondensed-SemiBold, Barlow Condensed;font-weight:600;letter-spacing:0.1em;}.cls-3{letter-spacing:0.09em;}.cls-4{letter-spacing:0.08em;}.cls-5{letter-spacing:0.09em;}</style></defs><path class="cls-1" d="M299.12,28.32h-43a9.2,9.2,0,0,0-8,4.62L187,139.22l-3.38,5.85,17.67,16.54h15.84a9.19,9.19,0,0,0,8-4.62Z"/><path class="cls-1" d="M356.28,28.32h-43a9.21,9.21,0,0,0-8,4.61L243.17,140.77l-2,4,17.24,16.86h15.85a9.2,9.2,0,0,0,8-4.62Z"/><path class="cls-1" d="M191,32.88l-44.33,75.65,30.69,30.69L242,28.32h-43A9.2,9.2,0,0,0,191,32.88Z"/><path class="cls-1" d="M79.64,118.87l30.48,30.56L139.74,101H96.44a9.2,9.2,0,0,0-7.67,4.12Z"/><path class="cls-1" d="M180.67,28.32,163.4,58.22H97.05L62,118.87H79.65l-15,26a9.2,9.2,0,0,1-8,4.59H31.38L13.74,118.87,63.37,32.92a9.21,9.21,0,0,1,8-4.6Z"/><text class="cls-2" transform="translate(13.74 234.54)">GRO<tspan class="cls-3" x="98.57" y="0">U</tspan><tspan x="131.76" y="0">N</tspan><tspan class="cls-4" x="167.16" y="0">D</tspan><tspan class="cls-5" x="199.3" y="0">W</tspan><tspan x="243.1" y="0">ORK</tspan></text></svg>