<svg id="Layer_1" data-name="Layer 1" xmlns="http://www.w3.org/2000/svg" viewBox="0 0 378.27 252"><defs><style>.cls-1{fill:#0BF571;}.cls-2{fill:#e5e1dc;}</style></defs><path class="cls-1" d="M299.12,28.32h-43a9.2,9.2,0,0,0-8,4.62L187,139.22l-3.38,5.85,17.67,16.54h15.84a9.19,9.19,0,0,0,8-4.62Z"/><path class="cls-1" d="M356.28,28.32h-43a9.21,9.21,0,0,0-8,4.61L243.17,140.77l-2,4,17.24,16.86h15.85a9.2,9.2,0,0,0,8-4.62Z"/><path class="cls-1" d="M191,32.88l-44.33,75.65,30.69,30.69L242,28.32h-43A9.2,9.2,0,0,0,191,32.88Z"/><path class="cls-1" d="M79.64,118.87l30.48,30.56L139.74,101H96.44a9.2,9.2,0,0,0-7.67,4.12Z"/><path class="cls-1" d="M180.67,28.32,163.4,58.22H97.05L62,118.87H79.65l-15,26a9.2,9.2,0,0,1-8,4.59H31.38L13.74,118.87,63.37,32.92a9.21,9.21,0,0,1,8-4.6Z"/><path class="cls-2" d="M19.2,232.12a10.11,10.11,0,0,1-3-7.67V203.8a10.14,10.14,0,0,1,3-7.67,11,11,0,0,1,8-2.88,11.24,11.24,0,0,1,8,2.88,10.14,10.14,0,0,1,3.06,7.73v2.28a.68.68,0,0,1-.2.49.67.67,0,0,1-.5.21H32.18a.67.67,0,0,1-.5-.21.64.64,0,0,1-.2-.49v-2.39a4.78,4.78,0,0,0-1.2-3.39,4.09,4.09,0,0,0-3.12-1.28,4,4,0,0,0-3.09,1.28,4.85,4.85,0,0,0-1.17,3.39v20.76a4.81,4.81,0,0,0,1.17,3.38,4,4,0,0,0,3.09,1.29,4.07,4.07,0,0,0,3.12-1.29,4.74,4.74,0,0,0,1.2-3.38v-5.6a.26.26,0,0,0-.3-.29H27.63a.7.7,0,0,1-.5-.2.68.68,0,0,1-.2-.5v-4.26a.64.64,0,0,1,.2-.49.67.67,0,0,1,.5-.21h9.91a.67.67,0,0,1,.5.21.68.68,0,0,1,.2.49v10.79a10,10,0,0,1-3.06,7.67,11.2,11.2,0,0,1-8,2.89A11,11,0,0,1,19.2,232.12Z"/><path class="cls-2" d="M65.07,234l-5-16.74a.32.32,0,0,0-.29-.23H56.73a.25.25,0,0,0-.29.29v16.56a.67.67,0,0,1-.21.5.64.64,0,0,1-.49.2H50.37a.64.64,0,0,1-.49-.2.67.67,0,0,1-.21-.5V194.41a.67.67,0,0,1,.21-.49.65.65,0,0,1,.49-.21h11a9.75,9.75,0,0,1,9.13,5.69,14.17,14.17,0,0,1,1.31,6.21,13.12,13.12,0,0,1-1.4,6.24,9.36,9.36,0,0,1-3.91,4c-.15,0-.21.16-.17.35L72,233.73a.6.6,0,0,1,.06.29c0,.35-.21.52-.64.52h-5.6A.73.73,0,0,1,65.07,234Zm-8.63-34.12v11.6a.26.26,0,0,0,.29.3h3.56a4.16,4.16,0,0,0,3.41-1.64A6.82,6.82,0,0,0,65,205.67a7,7,0,0,0-1.31-4.46,4.13,4.13,0,0,0-3.41-1.66H56.73A.25.25,0,0,0,56.44,199.84Z"/><path class="cls-2" d="M84.76,232a10.85,10.85,0,0,1-3.07-8v-19.6a10.84,10.84,0,0,1,3.07-8.05,11,11,0,0,1,8.07-3,11.08,11.08,0,0,1,8.11,3,10.77,10.77,0,0,1,3.09,8.05v19.6a10.79,10.79,0,0,1-3.09,8,11.08,11.08,0,0,1-8.11,3A11,11,0,0,1,84.76,232ZM96,227.81a5.18,5.18,0,0,0,1.23-3.59V204A5.16,5.16,0,0,0,96,200.45a4.09,4.09,0,0,0-3.21-1.37,4,4,0,0,0-3.17,1.37,5.24,5.24,0,0,0-1.2,3.59v20.18a5.26,5.26,0,0,0,1.2,3.59,4,4,0,0,0,3.17,1.37A4.09,4.09,0,0,0,96,227.81Z"/><path class="cls-2" d="M118.23,231.77a12.06,12.06,0,0,1-3-8.54V194.41a.7.7,0,0,1,.2-.49.69.69,0,0,1,.5-.21h5.37a.65.65,0,0,1,.49.21.67.67,0,0,1,.21.49v29.52a5.93,5.93,0,0,0,1.16,3.79,4,4,0,0,0,6.19,0,5.93,5.93,0,0,0,1.16-3.79V194.41a.67.67,0,0,1,.21-.49.65.65,0,0,1,.49-.21h5.37a.65.65,0,0,1,.49.21.67.67,0,0,1,.21.49v28.82a12,12,0,0,1-3,8.54,11.52,11.52,0,0,1-16,0Z"/><path class="cls-2" d="M165.42,193.92a.67.67,0,0,1,.5-.21h5.3a.72.72,0,0,1,.71.7v39.43a.67.67,0,0,1-.21.5.66.66,0,0,1-.5.2H165.1a.73.73,0,0,1-.76-.58l-8.69-24.73c0-.12-.11-.17-.2-.15a.18.18,0,0,0-.15.21l.06,24.55a.7.7,0,0,1-.2.5.68.68,0,0,1-.5.2h-5.31a.64.64,0,0,1-.49-.2.67.67,0,0,1-.21-.5V194.41a.67.67,0,0,1,.21-.49.65.65,0,0,1,.49-.21h6a.74.74,0,0,1,.76.59l8.75,24.55c0-.12.1-.17.2-.15a.18.18,0,0,0,.15-.21V194.41A.7.7,0,0,1,165.42,193.92Z"/><path class="cls-2" d="M184.26,234.34a.66.66,0,0,1-.2-.5V194.41a.66.66,0,0,1,.2-.49.67.67,0,0,1,.5-.21h10a10.8,10.8,0,0,1,8,3,11,11,0,0,1,3,8.1V223.4a11,11,0,0,1-3,8.11,10.79,10.79,0,0,1-8,3h-10A.66.66,0,0,1,184.26,234.34Zm6.85-5.63,3.5-.06a3.74,3.74,0,0,0,3.12-1.54A6.8,6.8,0,0,0,199,223V205.26a6.63,6.63,0,0,0-1.2-4.17,3.86,3.86,0,0,0-3.23-1.54h-3.45a.25.25,0,0,0-.29.29v28.58A.26.26,0,0,0,191.11,228.71Z"/><path class="cls-2" d="M222.2,233.9l-7.76-39.43-.05-.23c0-.35.21-.53.64-.53h5.6a.67.67,0,0,1,.76.65l4.08,24.32c0,.11.09.17.17.17s.14-.06.18-.17l3.67-24.32a.66.66,0,0,1,.76-.65h4.67a.67.67,0,0,1,.76.65l4,24.32c0,.11.1.17.18.17s.13-.06.17-.17l3.68-24.32a.65.65,0,0,1,.75-.65h5.43c.5,0,.72.26.64.76l-7.41,39.43c0,.43-.29.64-.76.64h-4.95c-.47,0-.72-.21-.76-.64l-3.91-24.79c0-.15-.1-.23-.17-.23s-.14.08-.18.23l-3.62,24.79a.65.65,0,0,1-.75.64h-5C222.49,234.54,222.24,234.33,222.2,233.9Z"/><path class="cls-2" d="M262.36,232a10.85,10.85,0,0,1-3.06-8v-19.6a10.83,10.83,0,0,1,3.06-8.05,12.32,12.32,0,0,1,16.18,0,10.78,10.78,0,0,1,3.1,8.05v19.6a10.8,10.8,0,0,1-3.1,8,12.32,12.32,0,0,1-16.18,0Zm11.28-4.17a5.18,5.18,0,0,0,1.23-3.59V204a5.16,5.16,0,0,0-1.23-3.59,4.09,4.09,0,0,0-3.2-1.37,4,4,0,0,0-3.18,1.37,5.24,5.24,0,0,0-1.2,3.59v20.18a5.26,5.26,0,0,0,1.2,3.59,4,4,0,0,0,3.18,1.37A4.09,4.09,0,0,0,273.64,227.81Z"/><path class="cls-2" d="M308.47,234l-5-16.74c-.08-.16-.18-.23-.29-.23h-3.09c-.2,0-.3.09-.3.29v16.56a.68.68,0,0,1-.7.7h-5.36a.66.66,0,0,1-.5-.2.7.7,0,0,1-.2-.5V194.41a.7.7,0,0,1,.2-.49.67.67,0,0,1,.5-.21h11a10.07,10.07,0,0,1,5.46,1.49,9.92,9.92,0,0,1,3.67,4.2,14,14,0,0,1,1.31,6.21,13,13,0,0,1-1.4,6.24,9.34,9.34,0,0,1-3.9,4c-.16,0-.22.16-.18.35l5.72,17.56a.6.6,0,0,1,.06.29c0,.35-.22.52-.65.52h-5.6A.72.72,0,0,1,308.47,234Zm-8.64-34.12v11.6a.27.27,0,0,0,.3.3h3.55a4.2,4.2,0,0,0,3.42-1.64,6.88,6.88,0,0,0,1.31-4.43,7,7,0,0,0-1.31-4.46,4.16,4.16,0,0,0-3.42-1.66h-3.55C299.93,199.55,299.83,199.64,299.83,199.84Z"/><path class="cls-2" d="M326,234.34a.7.7,0,0,1-.2-.5V194.41a.7.7,0,0,1,.2-.49.67.67,0,0,1,.5-.21h5.36a.67.67,0,0,1,.5.21.66.66,0,0,1,.2.49v16.1c0,.16,0,.25.12.26s.16,0,.23-.14l8.75-16.39a1,1,0,0,1,.88-.53h5.77a.54.54,0,0,1,.53.24.65.65,0,0,1-.06.58L340,210.92a1.57,1.57,0,0,0-.06.35l9.45,22.46a.76.76,0,0,1,.06.35c0,.31-.2.46-.58.46h-5.78a.75.75,0,0,1-.81-.52l-6.89-16.86c0-.12-.1-.16-.17-.14a.5.5,0,0,0-.24.14l-2.33,3.91a.89.89,0,0,0-.12.35v12.42a.68.68,0,0,1-.7.7h-5.36A.66.66,0,0,1,326,234.34Z"/></svg>